# xmcd CD database file
#
# Track frame offsets:
#	150
#	14312
#	29792
#	41667
#	58705
#	74502
#	88122
#	103700
#	116430
#	131377
#
# Disc length: 1966 seconds
#
# Revision: 0
# Processed by: cddbd v1.4PL0 Copyright (c) Steve Scherf et al.
# Submitted via: CDex 1.50Beta3
#
DISCID=8a07ac0a
DTITLE=Larry Pierce - Songs For Studs
DYEAR=1900
DGENRE=Country
TTITLE0=Do the Sexy Dance You Do
TTITLE1=Love Your Neighbor
TTITLE2=Make Your Daddy Happy
TTITLE3=Girlie Magazines
TTITLE4=On The Hood Of A Car
TTITLE5=Don't Believe That Lie I Gave You
TTITLE6=The Sheriff Wore A Dress
TTITLE7=I Never Missed A Lick
TTITLE8=I Don't Want Another Wife
TTITLE9=Does It Say Gucci On Your Underwear?
EXTD=
EXTT0=
EXTT1=
EXTT2=
EXTT3=
EXTT4=
EXTT5=
EXTT6=
EXTT7=
EXTT8=
EXTT9=
PLAYORDER=
